<svg width="104" height="33" viewBox="0 0 104 33" fill="none" xmlns="http://www.w3.org/2000/svg">
<path d="M0.86 16.7C0.86 15.38 1.10667 14.14 1.6 12.98C2.10667 11.82 2.79333 10.8133 3.66 9.96C4.52667 9.09333 5.54 8.41333 6.7 7.92C7.86 7.41333 9.09333 7.16 10.4 7.16C11.7067 7.16 12.9333 7.40667 14.08 7.9C15.2267 8.39333 16.2267 9.06667 17.08 9.92C17.9467 10.76 18.6267 11.7533 19.12 12.9C19.6267 14.0467 19.8933 15.2733 19.92 16.58V24.44C19.92 24.8667 19.7733 25.2333 19.48 25.54C19.1867 25.8467 18.82 26 18.38 26C17.9533 26 17.6 25.8467 17.32 25.54C17.0533 25.2333 16.92 24.8667 16.92 24.44L16.9 23.44C16.0467 24.28 15.0667 24.96 13.96 25.48C12.8533 25.9867 11.6667 26.24 10.4 26.24C9.09333 26.24 7.86 25.9933 6.7 25.5C5.54 24.9933 4.52667 24.3067 3.66 23.44C2.79333 22.5733 2.10667 21.5667 1.6 20.42C1.10667 19.26 0.86 18.02 0.86 16.7ZM3.88 16.7C3.88 17.5933 4.04667 18.4333 4.38 19.22C4.72667 20.0067 5.19333 20.7 5.78 21.3C6.36667 21.8867 7.05333 22.3533 7.84 22.7C8.64 23.0467 9.49333 23.22 10.4 23.22C11.32 23.22 12.1733 23.0467 12.96 22.7C13.76 22.3533 14.4533 21.8867 15.04 21.3C15.6267 20.7 16.0867 20.0067 16.42 19.22C16.7533 18.4333 16.92 17.5933 16.92 16.7C16.92 15.7933 16.7533 14.9467 16.42 14.16C16.0867 13.36 15.6267 12.6667 15.04 12.08C14.4533 11.4933 13.76 11.0333 12.96 10.7C12.1733 10.3533 11.32 10.18 10.4 10.18C9.49333 10.18 8.64 10.3533 7.84 10.7C7.05333 11.0333 6.36667 11.4933 5.78 12.08C5.19333 12.6667 4.72667 13.36 4.38 14.16C4.04667 14.9467 3.88 15.7933 3.88 16.7ZM27.7341 1.88C27.7341 1.45333 27.5874 1.1 27.2941 0.819999C27.0007 0.539998 26.6474 0.399998 26.2341 0.399998C25.8207 0.399998 25.4674 0.539998 25.1741 0.819999C24.8807 1.1 24.7341 1.45333 24.7341 1.88V24.52C24.7341 24.9333 24.8807 25.2867 25.1741 25.58C25.4674 25.86 25.8207 26 26.2341 26C26.6474 26 27.0007 25.86 27.2941 25.58C27.5874 25.2867 27.7341 24.9333 27.7341 24.52V1.88ZM32.2853 2.84C32.2853 3.32 32.452 3.73333 32.7853 4.08C33.132 4.42667 33.552 4.6 34.0453 4.6C34.5386 4.6 34.952 4.42667 35.2853 4.08C35.632 3.73333 35.8053 3.32 35.8053 2.84C35.8053 2.34667 35.632 1.93333 35.2853 1.6C34.952 1.25333 34.5386 1.08 34.0453 1.08C33.552 1.08 33.132 1.25333 32.7853 1.6C32.452 1.93333 32.2853 2.34667 32.2853 2.84ZM35.5453 8.66C35.5453 8.23333 35.4053 7.87333 35.1253 7.58C34.8453 7.28667 34.492 7.14 34.0653 7.14C33.6386 7.14 33.2786 7.28667 32.9853 7.58C32.692 7.87333 32.5453 8.23333 32.5453 8.66V24.5C32.5453 24.9133 32.692 25.2667 32.9853 25.56C33.292 25.8533 33.652 26 34.0653 26C34.4786 26 34.8253 25.8533 35.1053 25.56C35.3986 25.2667 35.5453 24.9133 35.5453 24.5V8.66ZM43.3375 8.64C43.3375 8.21333 43.1908 7.86 42.8975 7.58C42.6042 7.3 42.2508 7.16 41.8375 7.16C41.4242 7.16 41.0708 7.3 40.7775 7.58C40.4842 7.86 40.3375 8.21333 40.3375 8.64V31.28C40.3375 31.6933 40.4842 32.04 40.7775 32.32C41.0708 32.6133 41.4242 32.76 41.8375 32.76C42.2508 32.76 42.6042 32.6133 42.8975 32.32C43.1908 32.04 43.3375 31.6933 43.3375 31.28V23.64C44.1908 24.4533 45.1775 25.0933 46.2975 25.56C47.4175 26.0133 48.6108 26.24 49.8775 26.24C51.1975 26.24 52.4308 25.9933 53.5775 25.5C54.7375 24.9933 55.7442 24.3067 56.5975 23.44C57.4642 22.5733 58.1442 21.5667 58.6375 20.42C59.1442 19.26 59.3975 18.02 59.3975 16.7C59.3975 15.38 59.1442 14.14 58.6375 12.98C58.1442 11.82 57.4642 10.8133 56.5975 9.96C55.7442 9.09333 54.7375 8.41333 53.5775 7.92C52.4308 7.41333 51.1975 7.16 49.8775 7.16C48.6108 7.16 47.4175 7.39333 46.2975 7.86C45.1775 8.32667 44.1908 8.96667 43.3375 9.78V8.64ZM43.3575 16.7C43.3575 15.7933 43.5242 14.9467 43.8575 14.16C44.2042 13.36 44.6708 12.6667 45.2575 12.08C45.8442 11.4933 46.5308 11.0333 47.3175 10.7C48.1175 10.3533 48.9708 10.18 49.8775 10.18C50.7975 10.18 51.6508 10.3533 52.4375 10.7C53.2375 11.0333 53.9308 11.4933 54.5175 12.08C55.1042 12.6667 55.5642 13.36 55.8975 14.16C56.2308 14.9467 56.3975 15.7933 56.3975 16.7C56.3975 17.5933 56.2308 18.4333 55.8975 19.22C55.5642 20.0067 55.1042 20.7 54.5175 21.3C53.9308 21.8867 53.2375 22.3533 52.4375 22.7C51.6508 23.0467 50.7975 23.22 49.8775 23.22C48.9708 23.22 48.1175 23.0467 47.3175 22.7C46.5308 22.3533 45.8442 21.8867 45.2575 21.3C44.6708 20.7 44.2042 20.0067 43.8575 19.22C43.5242 18.4333 43.3575 17.5933 43.3575 16.7ZM66.0516 8.64C66.0516 8.21333 65.9049 7.86 65.6116 7.58C65.3182 7.3 64.9649 7.16 64.5516 7.16C64.1382 7.16 63.7849 7.3 63.4916 7.58C63.1982 7.86 63.0516 8.21333 63.0516 8.64V31.28C63.0516 31.6933 63.1982 32.04 63.4916 32.32C63.7849 32.6133 64.1382 32.76 64.5516 32.76C64.9649 32.76 65.3182 32.6133 65.6116 32.32C65.9049 32.04 66.0516 31.6933 66.0516 31.28V23.64C66.9049 24.4533 67.8916 25.0933 69.0116 25.56C70.1316 26.0133 71.3249 26.24 72.5916 26.24C73.9116 26.24 75.1449 25.9933 76.2916 25.5C77.4516 24.9933 78.4582 24.3067 79.3116 23.44C80.1782 22.5733 80.8582 21.5667 81.3516 20.42C81.8582 19.26 82.1116 18.02 82.1116 16.7C82.1116 15.38 81.8582 14.14 81.3516 12.98C80.8582 11.82 80.1782 10.8133 79.3116 9.96C78.4582 9.09333 77.4516 8.41333 76.2916 7.92C75.1449 7.41333 73.9116 7.16 72.5916 7.16C71.3249 7.16 70.1316 7.39333 69.0116 7.86C67.8916 8.32667 66.9049 8.96667 66.0516 9.78V8.64ZM66.0716 16.7C66.0716 15.7933 66.2382 14.9467 66.5716 14.16C66.9182 13.36 67.3849 12.6667 67.9716 12.08C68.5582 11.4933 69.2449 11.0333 70.0316 10.7C70.8316 10.3533 71.6849 10.18 72.5916 10.18C73.5116 10.18 74.3649 10.3533 75.1516 10.7C75.9516 11.0333 76.6449 11.4933 77.2316 12.08C77.8182 12.6667 78.2782 13.36 78.6116 14.16C78.9449 14.9467 79.1116 15.7933 79.1116 16.7C79.1116 17.5933 78.9449 18.4333 78.6116 19.22C78.2782 20.0067 77.8182 20.7 77.2316 21.3C76.6449 21.8867 75.9516 22.3533 75.1516 22.7C74.3649 23.0467 73.5116 23.22 72.5916 23.22C71.6849 23.22 70.8316 23.0467 70.0316 22.7C69.2449 22.3533 68.5582 21.8867 67.9716 21.3C67.3849 20.7 66.9182 20.0067 66.5716 19.22C66.2382 18.4333 66.0716 17.5933 66.0716 16.7ZM87.6456 16.7C87.6456 15.7933 87.8123 14.9467 88.1456 14.16C88.4923 13.36 88.959 12.6667 89.5456 12.08C90.1323 11.4933 90.819 11.0333 91.6056 10.7C92.4056 10.3533 93.259 10.18 94.1656 10.18C95.0856 10.18 95.939 10.3533 96.7256 10.7C97.5256 11.0333 98.219 11.4933 98.8056 12.08C99.3923 12.6667 99.8523 13.36 100.186 14.16C100.519 14.9467 100.686 15.7933 100.686 16.7C100.686 17.5933 100.519 18.4333 100.186 19.22C99.8523 20.0067 99.3923 20.7 98.8056 21.3C98.219 21.8867 97.5256 22.3533 96.7256 22.7C95.939 23.0467 95.0856 23.22 94.1656 23.22C93.259 23.22 92.4056 23.0467 91.6056 22.7C90.819 22.3533 90.1323 21.8867 89.5456 21.3C88.959 20.7 88.4923 20.0067 88.1456 19.22C87.8123 18.4333 87.6456 17.5933 87.6456 16.7ZM84.6256 16.7C84.6256 18.02 84.8723 19.26 85.3656 20.42C85.8723 21.5667 86.559 22.5733 87.4256 23.44C88.2923 24.3067 89.3056 24.9933 90.4656 25.5C91.6256 25.9933 92.859 26.24 94.1656 26.24C95.4856 26.24 96.719 25.9933 97.8656 25.5C99.0256 24.9933 100.032 24.3067 100.886 23.44C101.752 22.5733 102.432 21.5667 102.926 20.42C103.432 19.26 103.686 18.02 103.686 16.7C103.686 15.38 103.432 14.14 102.926 12.98C102.432 11.82 101.752 10.8133 100.886 9.96C100.032 9.09333 99.0256 8.41333 97.8656 7.92C96.719 7.41333 95.4856 7.16 94.1656 7.16C92.859 7.16 91.6256 7.41333 90.4656 7.92C89.3056 8.41333 88.2923 9.09333 87.4256 9.96C86.559 10.8133 85.8723 11.82 85.3656 12.98C84.8723 14.14 84.6256 15.38 84.6256 16.7Z" fill="#E30047"/>
</svg>
